<svg width="56" height="56" viewBox="0 0 56 56" fill="none" xmlns="http://www.w3.org/2000/svg">
<path d="M48 28C48 39.0457 39.0457 48 28 48C16.9543 48 8 39.0457 8 28C8 16.9543 16.9543 8 28 8C39.0457 8 48 16.9543 48 28Z" fill="#3F4ADE"/>
<path fill-rule="evenodd" clip-rule="evenodd" d="M12.8959 28.0265C13.7194 27.9355 14.4607 28.5292 14.5517 29.3526C14.9562 33.0102 16.784 36.1618 19.4259 38.3212C20.0674 38.8454 20.1624 39.7904 19.6381 40.4318C19.1139 41.0733 18.1689 41.1683 17.5274 40.644C14.3021 38.0079 12.0641 34.1516 11.5699 29.6823C11.4788 28.8589 12.0725 28.1176 12.8959 28.0265Z" fill="white"/>
</svg>
