<svg width="56" height="56" viewBox="0 0 56 56" fill="none" xmlns="http://www.w3.org/2000/svg">
<path fill-rule="evenodd" clip-rule="evenodd" d="M27.8597 12.5207C28.4858 13.1616 28.534 14.17 28.0042 14.8674L27.8597 15.0349L16.9309 26.222L42.2632 26.2222C43.2224 26.2222 44 27.0182 44 28C44 28.9117 43.3295 29.6631 42.4657 29.7658L42.2632 29.7778L16.9302 29.7773L27.8597 40.9651C28.4858 41.606 28.534 42.6144 28.0042 43.3118L27.8597 43.4793C27.2336 44.1202 26.2484 44.1695 25.5671 43.6272L25.4034 43.4793L11.5087 29.2571C10.8826 28.6162 10.8344 27.6078 11.3642 26.9104L11.5087 26.7429L25.4034 12.5207C26.0817 11.8264 27.1814 11.8264 27.8597 12.5207Z" fill="#1E1E1E"/>
</svg>
