<svg width="56" height="56" viewBox="0 0 56 56" fill="none" xmlns="http://www.w3.org/2000/svg">
<path d="M34.0666 37.3333C34.9687 38.2354 36.4312 38.2354 37.3333 37.3333C38.2354 36.4312 38.2354 34.9687 37.3333 34.0666L31.5049 28.2382C30.7547 27.4881 30.3333 26.4706 30.3333 25.4098V18.6666C30.3333 17.378 29.2886 16.3333 28 16.3333C26.7113 16.3333 25.6666 17.378 25.6666 18.6666V27.2764C25.6666 28.3373 26.0881 29.3547 26.8382 30.1049L34.0666 37.3333ZM28 51.3333C24.7722 51.3333 21.7388 50.7208 18.9 49.4958C16.0611 48.2708 13.5916 46.6083 11.4916 44.5083C9.39163 42.4083 7.72913 39.9389 6.50413 37.1C5.27913 34.2611 4.66663 31.2277 4.66663 28C4.66663 24.7722 5.27913 21.7388 6.50413 18.9C7.72913 16.0611 9.39163 13.5916 11.4916 11.4916C13.5916 9.39163 16.0611 7.72913 18.9 6.50413C21.7388 5.27913 24.7722 4.66663 28 4.66663C31.2277 4.66663 34.2611 5.27913 37.1 6.50413C39.9389 7.72913 42.4083 9.39163 44.5083 11.4916C46.6083 13.5916 48.2708 16.0611 49.4958 18.9C50.7208 21.7388 51.3333 24.7722 51.3333 28C51.3333 31.2277 50.7208 34.2611 49.4958 37.1C48.2708 39.9389 46.6083 42.4083 44.5083 44.5083C42.4083 46.6083 39.9389 48.2708 37.1 49.4958C34.2611 50.7208 31.2277 51.3333 28 51.3333Z" fill="#1E1E1E"/>
</svg>
