<svg width="56" height="56" viewBox="0 0 56 56" fill="none" xmlns="http://www.w3.org/2000/svg">
<path d="M46.55 49C41.6889 49 36.8861 47.9403 32.1417 45.8208C27.3972 43.7014 23.0806 40.6972 19.1917 36.8083C15.3028 32.9194 12.2986 28.6028 10.1792 23.8583C8.05972 19.1139 7 14.3111 7 9.45C7 8.75 7.23333 8.16667 7.7 7.7C8.16667 7.23333 8.75 7 9.45 7H18.9C19.4444 7 19.9306 7.18472 20.3583 7.55417C20.7861 7.92361 21.0389 8.36111 21.1167 8.86667L22.6333 17.0333C22.7111 17.6556 22.6917 18.1806 22.575 18.6083C22.4583 19.0361 22.2444 19.4056 21.9333 19.7167L16.275 25.4333C17.0528 26.8722 17.9764 28.2625 19.0458 29.6042C20.1153 30.9458 21.2917 32.2389 22.575 33.4833C23.7806 34.6889 25.0444 35.8069 26.3667 36.8375C27.6889 37.8681 29.0889 38.8111 30.5667 39.6667L36.05 34.1833C36.4 33.8333 36.8569 33.5708 37.4208 33.3958C37.9847 33.2208 38.5389 33.1722 39.0833 33.25L47.1333 34.8833C47.6778 35.0389 48.125 35.3208 48.475 35.7292C48.825 36.1375 49 36.5944 49 37.1V46.55C49 47.25 48.7667 47.8333 48.3 48.3C47.8333 48.7667 47.25 49 46.55 49Z" fill="#1E1E1E"/>
</svg>
